<svg xmlns="http://www.w3.org/2000/svg" viewBox="0 0 480.105 480.105" width="480" height="480"><g><g><path d="M429.166 43.326l7.628-14.066 14.065 7.627-7.627 14.066z"/></g></g><g><g><path d="M421.693 176.049l-98.144-25.928a8 8 0 00-9.776 5.695v.001a8 8 0 005.695 9.776h.001l98.136 25.928a8.276 8.276 0 002.048.264 8 8 0 002.04-15.736z"/></g></g><g><g><path d="M437.725 147.241l-98.976-25.264a8 8 0 00-3.952 15.504l98.976 25.256a7.7 7.7 0 001.976.248 8 8 0 001.976-15.744z"/></g></g><g><g><path d="M287.029 299.305h16v16h-16z"/></g></g><g><g><path d="M479.667 34.168C476.443 12.313 456.113-2.79 434.258.434S397.3 23.988 400.524 45.843a39.976 39.976 0 003.217 10.846l-7.736 14.168-7.016-3.816a8 8 0 00-10.848 3.2l-13.104 24.136-11.496-3.072a8.001 8.001 0 10-4.176 15.448l100.384 27.2c.68.187 1.383.281 2.088.28a8 8 0 002.088-15.728l-9.528-2.576 4.056-7.48a8 8 0 00-3.2-10.848l-7.032-3.816 7.712-14.208c21.854-3.224 36.958-23.554 33.734-45.409zm-51.166 77.433l-16.496-4.48-31.128-8.432 7.472-13.768 15.528 8.432 19.664 10.672 7.008 3.8-2.048 3.776zm5.384-43.448l-9.744 17.96-14.064-7.608 9.752-17.976a8.002 8.002 0 00-.2-7.976c-6.946-11.289-3.425-26.072 7.865-33.017 11.289-6.946 26.072-3.424 33.017 7.865 6.946 11.289 3.425 26.072-7.865 33.017a23.999 23.999 0 01-11.969 3.551 8 8 0 00-6.792 4.184z"/></g></g><g><g><path d="M472.005 248.105h-48a8 8 0 00-8 8v24h-51.6l10.968-20.208a8 8 0 00-3.2-10.848l-14.064-7.632 15.576-28.712 27.792 7.592a8.002 8.002 0 009.828-5.612 8.002 8.002 0 00-5.612-9.828l-97.336-26.584a8 8 0 00-4.216 15.432l21.968 6.008-10.208 18.792-14.064-7.632a8 8 0 00-10.84 3.2l-15.264 28.128a8 8 0 003.2 10.848l14.064 7.624-3.888 7.2a40.097 40.097 0 00-7.896 2 39.26 39.26 0 00-15.264 10.232h-57.944v-24a8 8 0 00-8-8h-24v-64c-.026-22.08-17.92-39.974-40-40h-96c-22.08.026-39.974 17.92-40 40v256c.026 22.08 17.92 39.974 40 40h96c22.08-.026 39.974-17.92 40-40v-64h24a8 8 0 008-8v-24h71.792a38.922 38.922 0 0030.608 0h105.6v24a8 8 0 008 8h48a8 8 0 008-8v-112a8 8 0 00-8-8zm-440 214.528a24 24 0 01-16-22.528v-256a24 24 0 0116-22.528v301.056zm32 1.472h-16v-304h16v304zm32 0h-16v-304h16v304zm32 0h-16v-304h16v304zm32-208v184a24 24 0 01-16 22.528V161.577a24 24 0 0116 22.528v72zm32 32v72h-16v-96h16v24zm16 40v-32h48.632a38.858 38.858 0 00-1.304 6.768c0 .288-.08.576-.112.864a40.4 40.4 0 000 6.816c0 .352.048.696.088 1.048.242 2.213.67 4.403 1.28 6.544.096.352.2.704.312 1.056a40.128 40.128 0 002.488 6.184c.16.312.336.616.504.936.32.592.608 1.208.96 1.784h-52.848zm132.72-121.776l15.328 5.28-12.048 22.176-14.064-7.632 10.784-19.824zm-39.488 22.448l56.256 30.528-7.632 14.056-33.184-18-9-4.856-14.072-7.664 7.632-14.064zm14.168 66.104c6.901 11.223 3.398 25.916-7.826 32.817a23.856 23.856 0 01-22.774 1.207 21.945 21.945 0 00-1.2-.472c-11.647-6.322-15.966-20.887-9.648-32.536a22.366 22.366 0 011.992-2.944 23.546 23.546 0 0110.76-8 24.737 24.737 0 017.664-1.472 8 8 0 006.792-4.176l5.928-10.936 14.064 7.632-5.952 10.904a7.997 7.997 0 00.2 7.976zm68.6 33.224h-54.8c.344-.56.672-1.128.984-1.712a39.081 39.081 0 002.752-6.56c.12-.392.264-.8.376-1.16a39.392 39.392 0 001.32-6.568c.048-.44.08-.88.12-1.32a39.95 39.95 0 000-6.848c0-.2-.064-.384-.08-.584a40.52 40.52 0 00-1.256-6.512c-.064-.232-.072-.48-.136-.712h50.72v31.976zm32 0h-16v-32h16v32zm48 32h-32v-96h32v96z"/></g></g></svg>