<svg xmlns="http://www.w3.org/2000/svg" viewBox="0 0 464.124 464.124" width="464" height="464"><g><g><path d="M240.009 104.062c-70.692 0-128 57.308-128 128 .084 70.658 57.342 127.916 128 128 70.692 0 128-57.308 128-128s-57.308-128-128-128zm0 240c-61.856 0-112-50.144-112-112 .066-61.828 50.172-111.934 112-112 61.856 0 112 50.144 112 112s-50.144 112-112 112z"/></g></g><g><g><path d="M312.009 208.062c-13.255 0-24 10.745-24 24s10.745 24 24 24 24-10.745 24-24-10.745-24-24-24zm0 32a8 8 0 110-16 8 8 0 010 16z"/></g></g><g><g><path d="M168.009 208.062c-13.255 0-24 10.745-24 24s10.745 24 24 24 24-10.745 24-24-10.745-24-24-24zm0 32a8 8 0 110-16 8 8 0 010 16z"/></g></g><g><g><path d="M240.009 280.062c-13.255 0-24 10.745-24 24s10.745 24 24 24 24-10.745 24-24-10.745-24-24-24zm0 32a8 8 0 110-16 8 8 0 010 16z"/></g></g><g><g><path d="M240.009 136.062c-13.255 0-24 10.745-24 24s10.745 24 24 24 24-10.745 24-24-10.745-24-24-24zm0 32a8 8 0 110-16 8 8 0 010 16z"/></g></g><g><g><path d="M394.007 69.286A224.005 224.005 0 00240.009 8.062 222.404 222.404 0 0086.217 69.286a23.72 23.72 0 00-28 6.072c-77.622 90.048-77.622 223.352 0 313.4a24.003 24.003 0 0017.248 8.272h.88a24.167 24.167 0 009.896-2.192c89.899 84.987 231.672 81.006 316.659-8.893s81.006-231.672-8.893-316.659zM82.081 378.718a8.054 8.054 0 01-6.024 2.4 7.83 7.83 0 01-5.72-2.728c-1.64-1.896-3.064-3.936-4.632-5.88l15.912-15.92-11.312-11.312-14.336 14.264c-53.279-76.633-53.279-178.319 0-254.952h.04l14.336 14.336 11.264-11.312-15.912-15.912c1.6-1.952 3-4 4.64-5.896a7.825 7.825 0 015.712-2.72h.312c2.149 0 4.208.865 5.712 2.4l34.048 34.048a8.105 8.105 0 01.344 10.896c-48.61 59.066-48.61 144.278 0 203.344a8.096 8.096 0 01-.336 10.896l-34.048 34.048zm157.879 61.295a207.996 207.996 0 01-141.239-55.351l28.72-28.72c8.775-8.807 9.372-22.857 1.376-32.376-43.748-53.159-43.748-129.849 0-183.008 7.994-9.521 7.393-23.571-1.384-32.376l-28.72-28.72C183.014 1.427 314.615 6.506 392.65 90.808a207.997 207.997 0 0155.358 141.254c-.026 114.875-93.173 207.978-208.048 207.951z"/></g></g><g><g><path d="M336.221 124.562l11.31-11.319 11.32 11.31-11.311 11.32z"/></g></g><g><g><path d="M370.115 113.264l11.313-11.314 11.314 11.314-11.314 11.313z"/></g></g><g><g><path d="M336.26 339.544l11.32-11.31 11.31 11.318-11.319 11.31z"/></g></g><g><g><path d="M347.514 373.444l11.314-11.313 11.314 11.313-11.314 11.314z"/></g></g><g><g><path d="M384.009 224.062h16v16h-16z"/></g></g><g><g><path d="M416.009 240.062h16v16h-16z"/></g></g><g><g><path d="M232.009 72.062h16v16h-16z"/></g></g><g><g><path d="M232.009 376.062h16v16h-16z"/></g></g><g><g><path d="M248.009 40.062h16v16h-16z"/></g></g><g><g><path d="M216.009 408.062h16v16h-16z"/></g></g><g><g><path d="M240.009 200.062c-17.673 0-32 14.327-32 32s14.327 32 32 32c17.673 0 32-14.327 32-32s-14.327-32-32-32zm0 48c-8.837 0-16-7.163-16-16s7.163-16 16-16 16 7.163 16 16-7.164 16-16 16z"/></g></g><g><g><path d="M77.769 145.742l-14.112-7.552c-31.531 58.61-31.531 129.134 0 187.744l14.112-7.552c-29.014-53.889-29.014-118.75 0-172.64z"/></g></g><g><g><path d="M81.612 130.238l11.314-11.314 11.314 11.314-11.314 11.313z"/></g></g><g><g><path d="M81.613 333.886l11.313-11.313 11.314 11.313L92.926 345.2z"/></g></g></svg>