<svg xmlns="http://www.w3.org/2000/svg" data-name="Layer 1" viewBox="0 0 512 512" width="512" height="512"><path d="M256 12A244.23 244.23 0 0082.617 83.455a243.146 243.146 0 000 345.09 246.081 246.081 0 00346.766 0 243.146 243.146 0 000-345.09A244.23 244.23 0 00256 12zm164.919 79.962c.884.879 1.745 1.772 2.612 2.663l-75.03 48.4a146.233 146.233 0 00-92.5-32.83c-.815 0-1.626.018-2.437.031l18.373-85.681a232.016 232.016 0 01148.982 67.417zM390.5 256c0 73.781-60.336 133.807-134.5 133.807S121.5 329.781 121.5 256 181.836 122.193 256 122.193 390.5 182.219 390.5 256zM256 24c1.259 0 2.514.026 3.77.046l-18.633 86.893a146.443 146.443 0 00-90.423 43.786l-47.964-73.6A232.19 232.19 0 01256 24zM91.081 91.962c.891-.887 1.8-1.752 2.7-2.623L142.435 164a144.7 144.7 0 00-32.935 92c0 .816.018 1.628.031 2.44l-86.2-18.3a229.745 229.745 0 0167.75-148.178zM80.222 408.47A229.584 229.584 0 0122.784 256c0-1.234.026-2.464.046-3.695l87.425 18.556a145.23 145.23 0 0043.945 89.887zm10.859 11.568c-.872-.867-1.723-1.75-2.579-2.629l75.035-48.4A146.228 146.228 0 00256 401.807c.819 0 1.633-.018 2.449-.031l-18.373 85.682a232.02 232.02 0 01-148.995-67.42zM256 488c-1.255 0-2.506-.026-3.758-.046l18.633-86.894a146.448 146.448 0 0090.39-43.763l47.962 73.6A232.186 232.186 0 01256 488zm164.919-67.962c-.9.894-1.812 1.767-2.723 2.644l-48.65-74.657A144.7 144.7 0 00402.5 256c0-.8-.018-1.591-.03-2.386l86.2 18.3a229.749 229.749 0 01-67.751 148.124zM489.216 256c0 1.252-.026 2.5-.046 3.75l-87.421-18.55a145.217 145.217 0 00-43.918-89.911l73.978-47.719A229.58 229.58 0 01489.216 256z"/><path d="M184.933 105.955a20.8 20.8 0 0019.184-12.81 20.506 20.506 0 00-.014-15.836 20.839 20.839 0 00-27.144-11.2A20.685 20.685 0 00165.7 93.18a20.824 20.824 0 0019.233 12.775zm-8.158-24.02a8.693 8.693 0 014.755-4.735 8.823 8.823 0 0111.5 4.721 8.591 8.591 0 01.006 6.633 8.69 8.69 0 01-4.756 4.735 8.819 8.819 0 01-11.494-4.72 8.591 8.591 0 01-.011-6.634zM319.153 407.671a20.686 20.686 0 00-11.253 27.076 20.829 20.829 0 0027.144 11.2 20.684 20.684 0 0011.256-27.072 20.84 20.84 0 00-27.147-11.204zm16.072 22.449a8.693 8.693 0 01-4.756 4.735 8.819 8.819 0 01-11.494-4.72 8.591 8.591 0 01-.006-6.633 8.691 8.691 0 014.756-4.736 8.822 8.822 0 0111.494 4.721 8.591 8.591 0 01.006 6.633zM319.161 104.386a20.827 20.827 0 0027.145-11.2 20.685 20.685 0 00-11.255-27.076 20.842 20.842 0 00-27.145 11.2 20.684 20.684 0 0011.255 27.075zm-.177-22.463a8.824 8.824 0 0111.5-4.72 8.693 8.693 0 014.755 4.736 8.584 8.584 0 01-.007 6.632 8.817 8.817 0 01-11.494 4.721 8.7 8.7 0 01-4.756-4.736 8.591 8.591 0 01.002-6.633zM192.84 407.668a20.843 20.843 0 00-27.146 11.2 20.684 20.684 0 0011.255 27.075 20.827 20.827 0 0027.145-11.2 20.686 20.686 0 00-11.254-27.076zm.176 22.463a8.82 8.82 0 01-11.5 4.721 8.7 8.7 0 01-4.755-4.736 8.591 8.591 0 01.006-6.633 8.824 8.824 0 0111.5-4.72 8.7 8.7 0 014.756 4.735 8.591 8.591 0 01-.007 6.633zM427.687 206a20.794 20.794 0 0019.184-12.809 20.513 20.513 0 00-.015-15.837 20.84 20.84 0 00-27.144-11.2 20.684 20.684 0 00-11.256 27.075A20.824 20.824 0 00427.687 206zm-8.159-24.02a8.693 8.693 0 014.756-4.735 8.822 8.822 0 0111.494 4.721 8.591 8.591 0 01.006 6.633 8.693 8.693 0 01-4.756 4.735 8.819 8.819 0 01-11.494-4.721 8.591 8.591 0 01-.006-6.631zM76.4 307.624A20.683 20.683 0 0065.144 334.7a20.825 20.825 0 0027.144 11.2 20.683 20.683 0 0011.255-27.075A20.839 20.839 0 0076.4 307.624zm16.072 22.448a8.7 8.7 0 01-4.756 4.736 8.82 8.82 0 01-11.5-4.722 8.588 8.588 0 01-.006-6.632 8.69 8.69 0 014.756-4.735 8.819 8.819 0 0111.494 4.72 8.591 8.591 0 01.012 6.633zM419.707 345.911a20.829 20.829 0 0027.144-11.2 20.685 20.685 0 00-11.251-27.078 20.841 20.841 0 00-27.145 11.2 20.686 20.686 0 0011.254 27.076zm-.176-22.463a8.818 8.818 0 0111.494-4.721 8.691 8.691 0 014.755 4.735 8.584 8.584 0 01-.006 6.634 8.819 8.819 0 01-11.494 4.72 8.7 8.7 0 01-4.756-4.736 8.588 8.588 0 01.007-6.632zM92.293 166.144a20.841 20.841 0 00-27.145 11.2A20.684 20.684 0 0076.4 204.422a20.827 20.827 0 0027.145-11.2 20.685 20.685 0 00-11.254-27.075zm.176 22.463a8.817 8.817 0 01-11.494 4.72 8.691 8.691 0 01-4.756-4.736 8.588 8.588 0 01.007-6.632 8.819 8.819 0 0111.494-4.72 8.69 8.69 0 014.756 4.735 8.591 8.591 0 01-.007 6.633zM208.426 143.055v17.386a13.273 13.273 0 0012.043 13.2 90.418 90.418 0 00-46.117 44.55 13.277 13.277 0 00-13-10.672h-17.387a13.272 13.272 0 00-13.257 13.258V291.2a13.273 13.273 0 0013.257 13.258h17.387a13.28 13.28 0 0013-10.65 90.415 90.415 0 0046.06 44.531 13.274 13.274 0 00-11.983 13.193v17.387a13.273 13.273 0 0013.258 13.257h70.423a13.272 13.272 0 0013.258-13.257v-17.39a13.273 13.273 0 00-13.258-13.258h-.368a90.372 90.372 0 0047.443-47.911v.837a13.273 13.273 0 0013.257 13.258h17.387a13.274 13.274 0 0013.255-13.255v-70.426a13.273 13.273 0 00-13.258-13.258h-17.387a13.272 13.272 0 00-13.257 13.258v.866a90.372 90.372 0 00-47.51-47.941h.435a13.272 13.272 0 0013.258-13.258v-17.386a13.273 13.273 0 00-13.258-13.255h-70.423a13.274 13.274 0 00-13.258 13.255zM162.609 291.2a1.275 1.275 0 01-1.257 1.258h-17.387a1.275 1.275 0 01-1.257-1.258v-2.98h19.9zm0-14.977h-19.9v-5.49h19.9zm0-17.49h-19.9v-5.49h19.9zm0-17.49h-19.9v-5.489h19.9zm0-17.489h-19.9v-2.977a1.275 1.275 0 011.257-1.258h17.387a1.275 1.275 0 011.257 1.258zm188.573-2.977a1.274 1.274 0 011.257-1.258h17.387a1.275 1.275 0 011.258 1.258v2.977h-19.9zm0 14.977h19.9v5.489h-19.9zm0 17.489h19.9v5.49h-19.9zm0 17.49h19.9v5.49h-19.9zm0 17.49h19.9v2.977a1.276 1.276 0 01-1.258 1.258h-17.385a1.275 1.275 0 01-1.257-1.258zm-126.521 81.95h-2.977a1.275 1.275 0 01-1.258-1.257v-17.387a1.275 1.275 0 011.258-1.258h2.977zm17.489 0h-5.489v-19.9h5.489zm17.49 0h-5.49v-19.9h5.49zm17.49 0h-5.49v-19.9h5.49zm14.977-19.9a1.275 1.275 0 011.258 1.258v17.387a1.275 1.275 0 01-1.258 1.257h-2.977v-19.9zM334.066 256c0 42.81-35.02 77.639-78.066 77.639S177.934 298.81 177.934 256s35.02-77.639 78.066-77.639S334.066 213.19 334.066 256zM289.13 141.8h2.977a1.275 1.275 0 011.258 1.258v17.386a1.275 1.275 0 01-1.258 1.258h-2.977zm-17.49 0h5.49v19.9h-5.49zm-17.49 0h5.49v19.9h-5.49zm-17.489 0h5.489v19.9h-5.489zm-12 19.9h-2.977a1.275 1.275 0 01-1.258-1.258v-17.387a1.275 1.275 0 011.258-1.258h2.977z"/><path d="M218.033 256A37.967 37.967 0 10256 218.2a37.929 37.929 0 00-37.967 37.8zM256 230.2a25.806 25.806 0 11-25.967 25.8A25.916 25.916 0 01256 230.2z"/><path d="M244.018 194.83a13.163 13.163 0 00-9.717.052l-5.472 2.207a13.064 13.064 0 00-7.189 7.075l-.055.132a13.1 13.1 0 00-9.488 3.827l-4.176 4.154a13.021 13.021 0 00-3.853 8.893 13.1 13.1 0 00-6.829 6.886l-2.3 5.411a13.006 13.006 0 00-.077 10.048l.061.149a13.08 13.08 0 00-3.979 9.4v5.876a13.065 13.065 0 003.59 9 13 13 0 00.072 9.685l2.219 5.445a13.114 13.114 0 007.237 7.212v.148a13.026 13.026 0 003.859 9.3l4.176 4.154a13.138 13.138 0 008.927 3.819 13.059 13.059 0 006.921 6.8l5.439 2.289a13.163 13.163 0 0010.234 0 13.153 13.153 0 009.429 3.972h5.906a13.146 13.146 0 009.029-3.585 13.163 13.163 0 009.717-.052l5.472-2.207a13.062 13.062 0 007.188-7.075l.056-.133a13.188 13.188 0 009.488-3.826l4.176-4.155a13.017 13.017 0 003.853-8.892 13.112 13.112 0 006.829-6.886l2.3-5.411a13.011 13.011 0 00.076-10.048l-.061-.149a13.08 13.08 0 003.979-9.4v-5.876a13.065 13.065 0 00-3.59-9 13 13 0 00-.072-9.684l-2.219-5.446a13.117 13.117 0 00-7.237-7.212v-.148a13.026 13.026 0 00-3.859-9.3l-4.177-4.155a13.131 13.131 0 00-8.926-3.817 13.055 13.055 0 00-6.921-6.8l-5.439-2.29a13.171 13.171 0 00-10.234.005 13.151 13.151 0 00-9.429-3.972h-5.906a13.142 13.142 0 00-9.028 3.58zm16.106 9.549v1.957a6 6 0 0011.521 2.349l.767-1.8a1.213 1.213 0 011.548-.609l5.44 2.29a1.127 1.127 0 01.613.625 1.08 1.08 0 010 .844 6 6 0 009.748 6.6 1.223 1.223 0 011.675 0l4.176 4.155a1.131 1.131 0 010 1.583l-1.391 1.384a6 6 0 006.476 9.818l1.823-.736a1.21 1.21 0 011.539.631l2.219 5.446a1.08 1.08 0 01-.014.842 1.131 1.131 0 01-.622.619 6 6 0 002.243 11.558 1.169 1.169 0 011.168 1.133v5.876a1.168 1.168 0 01-1.171 1.134h-1.967a6 6 0 00-2.328 11.53l1.812.763a1.132 1.132 0 01.616.629 1.083 1.083 0 010 .843l-2.3 5.411a1.213 1.213 0 01-1.546.61 6 6 0 00-6.556 9.778 1.129 1.129 0 010 1.58l-4.175 4.154a1.224 1.224 0 01-1.679 0l-1.391-1.384a6 6 0 00-9.788 6.517l.739 1.814a1.083 1.083 0 01-.013.843 1.13 1.13 0 01-.626.621l-5.473 2.207a1.211 1.211 0 01-1.537-.628 6 6 0 00-11.549 2.263 1.169 1.169 0 01-1.17 1.131h-5.906a1.168 1.168 0 01-1.17-1.134v-1.957a6 6 0 00-11.522-2.348l-.767 1.8a1.208 1.208 0 01-1.548.608l-5.439-2.288a1.125 1.125 0 01-.614-.625 1.082 1.082 0 010-.845 6 6 0 00-9.748-6.6 1.222 1.222 0 01-1.675 0l-4.176-4.156a1.13 1.13 0 010-1.582l1.391-1.384a6 6 0 00-6.476-9.818l-1.824.736a1.211 1.211 0 01-1.538-.631l-2.219-5.444a1.086 1.086 0 01.013-.844 1.135 1.135 0 01.624-.619 6 6 0 00-2.244-11.558 1.169 1.169 0 01-1.168-1.133v-5.876a1.169 1.169 0 011.171-1.134h1.968a6 6 0 002.326-11.531l-1.811-.762a1.132 1.132 0 01-.616-.629 1.083 1.083 0 010-.843l2.3-5.412a1.213 1.213 0 011.545-.609 6 6 0 006.555-9.778 1.13 1.13 0 010-1.58l4.176-4.155a1.223 1.223 0 011.677 0l1.39 1.385a6 6 0 009.79-6.518l-.739-1.812a1.081 1.081 0 01.013-.844 1.13 1.13 0 01.626-.621l5.473-2.207a1.21 1.21 0 011.537.629 6 6 0 0011.549-2.264 1.169 1.169 0 011.17-1.131h5.906a1.169 1.169 0 011.173 1.133z"/></svg>