<svg height="512" viewBox="0 0 512 512" width="512" xmlns="http://www.w3.org/2000/svg"><g><path d="M381.549 10.235l-31.822 31.821-31.822-31.821c-13.647-13.647-35.853-13.647-49.501 0L10.235 268.396c-13.647 13.647-13.647 35.852 0 49.499l31.822 31.821-31.822 31.821c-5.858 5.858-5.858 15.356 0 21.214l99.001 98.998c5.858 5.858 15.356 5.858 21.215 0l31.822-31.821 31.822 31.821c6.611 6.611 15.401 10.252 24.751 10.252 9.35-.001 18.14-3.642 24.749-10.252l28.274-28.273.013-.012.011-.013 201.584-201.576.002-.002.002-.002 28.285-28.284c13.647-13.647 13.647-35.852 0-49.499l-31.822-31.821 31.822-31.821c5.858-5.858 5.858-15.356 0-21.214l-99.001-98.998c-5.86-5.857-15.358-5.857-21.216.001zM155.202 335.573l180.382-180.376 21.215 21.214-180.382 180.377zm42.429 42.428l180.381-180.377 21.215 21.214-180.382 180.377zm116.738-244.018L133.987 314.359l-21.215-21.214 180.382-180.376zM240.06 420.428l180.382-180.376 21.215 21.214-180.383 180.376zm31.88-328.873L91.558 271.931l-21.215-21.214L250.726 70.341zM119.844 469.928l-77.787-77.784 21.215-21.214 77.787 77.784zm102.535 10.607c-2.801 2.078-4.268 2.078-7.07 0L31.45 296.681a5.005 5.005 0 010-7.071l17.679-17.678 190.93 190.924zM480.55 215.303a5.006 5.006 0 010 7.071l-17.679 17.678L271.94 49.127l17.679-17.678a5.008 5.008 0 017.072 0zm-10.607-95.463l-21.215 21.214-77.787-77.784 21.215-21.214z"/></g></svg>